<mxfile host="app.diagrams.net" modified="2024-04-11T08:37:14.725Z" agent="Mozilla/5.0 (Windows NT 10.0; Win64; x64) AppleWebKit/537.36 (KHTML, like Gecko) Chrome/123.0.0.0 Safari/537.36" etag="Zu6krS42gGqHShGYTBP4" version="24.2.3" type="github">
  <diagram name="Page-1" id="J9lwy_OmdIaz06i2VWud">
    <mxGraphModel dx="1640" dy="821" grid="1" gridSize="10" guides="1" tooltips="1" connect="1" arrows="1" fold="1" page="1" pageScale="1" pageWidth="850" pageHeight="1100" math="0" shadow="0">
      <root>
        <mxCell id="0" />
        <mxCell id="1" parent="0" />
        <mxCell id="PVKBwNUmlwo5uo1mzsMI-5" value="" style="edgeStyle=orthogonalEdgeStyle;rounded=0;orthogonalLoop=1;jettySize=auto;html=1;exitX=1;exitY=0.5;exitDx=0;exitDy=0;" parent="1" source="PVKBwNUmlwo5uo1mzsMI-6" target="PVKBwNUmlwo5uo1mzsMI-2" edge="1">
          <mxGeometry relative="1" as="geometry">
            <mxPoint x="188" y="255" as="sourcePoint" />
          </mxGeometry>
        </mxCell>
        <mxCell id="PVKBwNUmlwo5uo1mzsMI-9" value="" style="edgeStyle=orthogonalEdgeStyle;rounded=0;orthogonalLoop=1;jettySize=auto;html=1;" parent="1" source="PVKBwNUmlwo5uo1mzsMI-2" target="PVKBwNUmlwo5uo1mzsMI-8" edge="1">
          <mxGeometry relative="1" as="geometry">
            <Array as="points">
              <mxPoint x="458" y="255" />
            </Array>
          </mxGeometry>
        </mxCell>
        <mxCell id="PVKBwNUmlwo5uo1mzsMI-2" value="int choice = 0;&lt;div&gt;scanf(&quot;%d&quot;, &amp;amp;choice);&lt;/div&gt;" style="rounded=0;whiteSpace=wrap;html=1;" parent="1" vertex="1">
          <mxGeometry x="398" y="225" width="120" height="60" as="geometry" />
        </mxCell>
        <mxCell id="PVKBwNUmlwo5uo1mzsMI-6" value="Print Menu:&lt;div style=&quot;text-align: justify;&quot;&gt;&lt;br&gt;&lt;/div&gt;&lt;div style=&quot;text-align: justify;&quot;&gt;1 - Peruse&lt;/div&gt;&lt;div style=&quot;text-align: justify;&quot;&gt;2 - Recommend&lt;/div&gt;&lt;div style=&quot;text-align: justify;&quot;&gt;3 - Input&amp;nbsp; &amp;nbsp;&amp;nbsp;&lt;/div&gt;&lt;div style=&quot;text-align: justify;&quot;&gt;4 - Exit&amp;nbsp; &amp;nbsp; &amp;nbsp;&amp;nbsp;&lt;/div&gt;" style="rounded=1;whiteSpace=wrap;html=1;fillColor=#f8cecc;strokeColor=#b85450;" parent="1" vertex="1">
          <mxGeometry x="99" y="195" width="130" height="120" as="geometry" />
        </mxCell>
        <mxCell id="PVKBwNUmlwo5uo1mzsMI-27" value="" style="edgeStyle=orthogonalEdgeStyle;rounded=0;orthogonalLoop=1;jettySize=auto;html=1;" parent="1" source="PVKBwNUmlwo5uo1mzsMI-8" target="PVKBwNUmlwo5uo1mzsMI-26" edge="1">
          <mxGeometry relative="1" as="geometry" />
        </mxCell>
        <mxCell id="PVKBwNUmlwo5uo1mzsMI-28" value="case 3:" style="edgeLabel;html=1;align=center;verticalAlign=middle;resizable=0;points=[];fontColor=#009999;" parent="PVKBwNUmlwo5uo1mzsMI-27" vertex="1" connectable="0">
          <mxGeometry x="-0.041" y="-2" relative="1" as="geometry">
            <mxPoint x="-15" y="-15" as="offset" />
          </mxGeometry>
        </mxCell>
        <mxCell id="PVKBwNUmlwo5uo1mzsMI-31" value="" style="edgeStyle=orthogonalEdgeStyle;rounded=0;orthogonalLoop=1;jettySize=auto;html=1;" parent="1" source="PVKBwNUmlwo5uo1mzsMI-8" edge="1">
          <mxGeometry relative="1" as="geometry">
            <mxPoint x="218" y="495" as="targetPoint" />
          </mxGeometry>
        </mxCell>
        <mxCell id="PVKBwNUmlwo5uo1mzsMI-32" value="case 1:" style="edgeLabel;html=1;align=center;verticalAlign=middle;resizable=0;points=[];fontColor=#009999;" parent="PVKBwNUmlwo5uo1mzsMI-31" vertex="1" connectable="0">
          <mxGeometry x="-0.0428" y="4" relative="1" as="geometry">
            <mxPoint x="43" y="-17" as="offset" />
          </mxGeometry>
        </mxCell>
        <mxCell id="PVKBwNUmlwo5uo1mzsMI-46" value="" style="edgeStyle=orthogonalEdgeStyle;rounded=0;orthogonalLoop=1;jettySize=auto;html=1;" parent="1" source="PVKBwNUmlwo5uo1mzsMI-8" edge="1">
          <mxGeometry relative="1" as="geometry">
            <mxPoint x="458" y="610" as="targetPoint" />
          </mxGeometry>
        </mxCell>
        <mxCell id="PVKBwNUmlwo5uo1mzsMI-47" value="&lt;p style=&quot;line-height: 0%;&quot;&gt;&lt;font color=&quot;#009999&quot;&gt;case 2:&lt;/font&gt;&lt;/p&gt;" style="edgeLabel;html=1;align=center;verticalAlign=middle;resizable=0;points=[];" parent="PVKBwNUmlwo5uo1mzsMI-46" vertex="1" connectable="0">
          <mxGeometry x="0.0899" y="1" relative="1" as="geometry">
            <mxPoint as="offset" />
          </mxGeometry>
        </mxCell>
        <mxCell id="PVKBwNUmlwo5uo1mzsMI-8" value="switch(choice)" style="rhombus;whiteSpace=wrap;html=1;rounded=0;" parent="1" vertex="1">
          <mxGeometry x="408" y="453" width="100" height="85" as="geometry" />
        </mxCell>
        <mxCell id="PVKBwNUmlwo5uo1mzsMI-14" value="Program end." style="rounded=1;whiteSpace=wrap;html=1;fillColor=#f8cecc;strokeColor=#b85450;" parent="1" vertex="1">
          <mxGeometry x="690" y="225" width="120" height="60" as="geometry" />
        </mxCell>
        <mxCell id="PVKBwNUmlwo5uo1mzsMI-15" value="" style="edgeStyle=none;orthogonalLoop=1;jettySize=auto;html=1;rounded=0;entryX=0;entryY=1;entryDx=0;entryDy=0;exitX=1;exitY=0;exitDx=0;exitDy=0;" parent="1" source="PVKBwNUmlwo5uo1mzsMI-8" target="PVKBwNUmlwo5uo1mzsMI-14" edge="1">
          <mxGeometry width="100" relative="1" as="geometry">
            <mxPoint x="438" y="300" as="sourcePoint" />
            <mxPoint x="538" y="300" as="targetPoint" />
            <Array as="points" />
          </mxGeometry>
        </mxCell>
        <mxCell id="PVKBwNUmlwo5uo1mzsMI-16" value="case 4:" style="edgeLabel;html=1;align=center;verticalAlign=middle;resizable=0;points=[];fontColor=#009999;" parent="PVKBwNUmlwo5uo1mzsMI-15" vertex="1" connectable="0">
          <mxGeometry x="-0.0486" y="1" relative="1" as="geometry">
            <mxPoint as="offset" />
          </mxGeometry>
        </mxCell>
        <mxCell id="PVKBwNUmlwo5uo1mzsMI-25" value="" style="edgeStyle=orthogonalEdgeStyle;rounded=0;orthogonalLoop=1;jettySize=auto;html=1;exitX=0.5;exitY=1;exitDx=0;exitDy=0;" parent="1" source="PVKBwNUmlwo5uo1mzsMI-30" target="PVKBwNUmlwo5uo1mzsMI-24" edge="1">
          <mxGeometry relative="1" as="geometry">
            <mxPoint x="164" y="560" as="sourcePoint" />
          </mxGeometry>
        </mxCell>
        <mxCell id="PVKBwNUmlwo5uo1mzsMI-40" value="" style="edgeStyle=orthogonalEdgeStyle;rounded=0;orthogonalLoop=1;jettySize=auto;html=1;" parent="1" source="PVKBwNUmlwo5uo1mzsMI-24" target="PVKBwNUmlwo5uo1mzsMI-39" edge="1">
          <mxGeometry relative="1" as="geometry" />
        </mxCell>
        <mxCell id="PVKBwNUmlwo5uo1mzsMI-24" value="&lt;div&gt;&lt;i&gt;// Note: could also create an &#39;ID&#39; system&lt;/i&gt;&lt;/div&gt;&lt;div&gt;&lt;br&gt;&lt;/div&gt;int item = 0;&lt;div&gt;scanf(&quot;%d&quot;, &amp;amp;item);&lt;/div&gt;" style="rounded=0;whiteSpace=wrap;html=1;" parent="1" vertex="1">
          <mxGeometry x="104" y="623" width="120" height="80" as="geometry" />
        </mxCell>
        <mxCell id="PVKBwNUmlwo5uo1mzsMI-34" value="" style="edgeStyle=orthogonalEdgeStyle;rounded=0;orthogonalLoop=1;jettySize=auto;html=1;" parent="1" source="PVKBwNUmlwo5uo1mzsMI-26" target="PVKBwNUmlwo5uo1mzsMI-33" edge="1">
          <mxGeometry relative="1" as="geometry" />
        </mxCell>
        <mxCell id="PVKBwNUmlwo5uo1mzsMI-26" value="Create struct for new item" style="whiteSpace=wrap;html=1;rounded=0;" parent="1" vertex="1">
          <mxGeometry x="690" y="465.5" width="120" height="60" as="geometry" />
        </mxCell>
        <mxCell id="PVKBwNUmlwo5uo1mzsMI-30" value="Display catalogue of all saved food items w/ corresponding index.&lt;div&gt;&lt;br&gt;&lt;div&gt;(Ctrl - D to exit mode)&lt;/div&gt;&lt;/div&gt;" style="whiteSpace=wrap;html=1;rounded=0;" parent="1" vertex="1">
          <mxGeometry x="89" y="447" width="150" height="96.25" as="geometry" />
        </mxCell>
        <mxCell id="PVKBwNUmlwo5uo1mzsMI-36" value="" style="edgeStyle=orthogonalEdgeStyle;rounded=0;orthogonalLoop=1;jettySize=auto;html=1;" parent="1" source="PVKBwNUmlwo5uo1mzsMI-33" target="PVKBwNUmlwo5uo1mzsMI-35" edge="1">
          <mxGeometry relative="1" as="geometry" />
        </mxCell>
        <mxCell id="PVKBwNUmlwo5uo1mzsMI-33" value="&lt;div&gt;&lt;br&gt;&lt;/div&gt;Add item info&lt;div&gt;&lt;ul&gt;&lt;li style=&quot;text-align: justify;&quot;&gt;Dish name&lt;/li&gt;&lt;li style=&quot;text-align: justify;&quot;&gt;Price&lt;/li&gt;&lt;li style=&quot;text-align: justify;&quot;&gt;User&#39;s rating&lt;/li&gt;&lt;li style=&quot;text-align: justify;&quot;&gt;Computed &quot;sulit-ness&quot;&lt;/li&gt;&lt;li style=&quot;text-align: justify;&quot;&gt;Where to buy&lt;/li&gt;&lt;/ul&gt;&lt;/div&gt;" style="whiteSpace=wrap;html=1;rounded=0;" parent="1" vertex="1">
          <mxGeometry x="665" y="590" width="170" height="126.5" as="geometry" />
        </mxCell>
        <mxCell id="PVKBwNUmlwo5uo1mzsMI-35" value="Merge item into catalogue." style="whiteSpace=wrap;html=1;rounded=0;" parent="1" vertex="1">
          <mxGeometry x="690" y="760" width="120" height="60" as="geometry" />
        </mxCell>
        <mxCell id="PVKBwNUmlwo5uo1mzsMI-39" value="Print additional item&#39;s additional info" style="whiteSpace=wrap;html=1;rounded=0;" parent="1" vertex="1">
          <mxGeometry x="104" y="760" width="120" height="60" as="geometry" />
        </mxCell>
        <mxCell id="PVKBwNUmlwo5uo1mzsMI-42" value="" style="endArrow=classic;html=1;rounded=0;exitX=0.5;exitY=1;exitDx=0;exitDy=0;entryX=0;entryY=0.5;entryDx=0;entryDy=0;" parent="1" source="PVKBwNUmlwo5uo1mzsMI-39" target="PVKBwNUmlwo5uo1mzsMI-30" edge="1">
          <mxGeometry width="50" height="50" relative="1" as="geometry">
            <mxPoint x="379" y="729.62" as="sourcePoint" />
            <mxPoint x="429" y="679.62" as="targetPoint" />
            <Array as="points">
              <mxPoint x="164" y="830" />
              <mxPoint x="59" y="830" />
              <mxPoint x="59" y="495.62" />
            </Array>
          </mxGeometry>
        </mxCell>
        <mxCell id="PVKBwNUmlwo5uo1mzsMI-43" value="" style="endArrow=classic;html=1;rounded=0;exitX=0.5;exitY=0;exitDx=0;exitDy=0;entryX=0.5;entryY=1;entryDx=0;entryDy=0;" parent="1" source="PVKBwNUmlwo5uo1mzsMI-30" target="PVKBwNUmlwo5uo1mzsMI-6" edge="1">
          <mxGeometry width="50" height="50" relative="1" as="geometry">
            <mxPoint x="359" y="580" as="sourcePoint" />
            <mxPoint x="409" y="530" as="targetPoint" />
            <Array as="points">
              <mxPoint x="164" y="380" />
            </Array>
          </mxGeometry>
        </mxCell>
        <mxCell id="PVKBwNUmlwo5uo1mzsMI-44" value="&lt;h2&gt;Ctrl D&lt;/h2&gt;" style="edgeLabel;html=1;align=center;verticalAlign=middle;resizable=0;points=[];" parent="PVKBwNUmlwo5uo1mzsMI-43" vertex="1" connectable="0">
          <mxGeometry x="-0.2053" relative="1" as="geometry">
            <mxPoint y="7" as="offset" />
          </mxGeometry>
        </mxCell>
        <mxCell id="PVKBwNUmlwo5uo1mzsMI-50" value="" style="edgeStyle=orthogonalEdgeStyle;rounded=0;orthogonalLoop=1;jettySize=auto;html=1;" parent="1" source="PVKBwNUmlwo5uo1mzsMI-45" target="PVKBwNUmlwo5uo1mzsMI-49" edge="1">
          <mxGeometry relative="1" as="geometry" />
        </mxCell>
        <mxCell id="PVKBwNUmlwo5uo1mzsMI-45" value="Print 3 most recent expenses" style="whiteSpace=wrap;html=1;rounded=0;" parent="1" vertex="1">
          <mxGeometry x="398" y="623" width="120" height="60" as="geometry" />
        </mxCell>
        <mxCell id="PVKBwNUmlwo5uo1mzsMI-52" value="" style="edgeStyle=orthogonalEdgeStyle;rounded=0;orthogonalLoop=1;jettySize=auto;html=1;" parent="1" source="PVKBwNUmlwo5uo1mzsMI-49" target="PVKBwNUmlwo5uo1mzsMI-51" edge="1">
          <mxGeometry relative="1" as="geometry" />
        </mxCell>
        <mxCell id="PVKBwNUmlwo5uo1mzsMI-49" value="float budget = 0;&lt;div&gt;scanf(&quot;%f&quot;, &amp;amp;budget);&lt;/div&gt;" style="whiteSpace=wrap;html=1;rounded=0;" parent="1" vertex="1">
          <mxGeometry x="398" y="760" width="120" height="60" as="geometry" />
        </mxCell>
        <mxCell id="PVKBwNUmlwo5uo1mzsMI-51" value="Search for food items within the budget&lt;div&gt;&lt;br&gt;&lt;/div&gt;&lt;div&gt;Arrange by sulit-ness&lt;/div&gt;" style="whiteSpace=wrap;html=1;rounded=0;" parent="1" vertex="1">
          <mxGeometry x="398" y="870" width="120" height="80" as="geometry" />
        </mxCell>
        <mxCell id="PVKBwNUmlwo5uo1mzsMI-53" value="" style="endArrow=classic;html=1;rounded=0;exitX=0.5;exitY=1;exitDx=0;exitDy=0;entryX=0;entryY=0.5;entryDx=0;entryDy=0;" parent="1" source="PVKBwNUmlwo5uo1mzsMI-51" target="PVKBwNUmlwo5uo1mzsMI-6" edge="1">
          <mxGeometry width="50" height="50" relative="1" as="geometry">
            <mxPoint x="268" y="720" as="sourcePoint" />
            <mxPoint x="318" y="670" as="targetPoint" />
            <Array as="points">
              <mxPoint x="458" y="970" />
              <mxPoint x="40" y="970" />
              <mxPoint x="40" y="255" />
            </Array>
          </mxGeometry>
        </mxCell>
        <mxCell id="PVKBwNUmlwo5uo1mzsMI-54" value="" style="endArrow=classic;html=1;rounded=0;exitX=0.5;exitY=1;exitDx=0;exitDy=0;entryX=0.5;entryY=0;entryDx=0;entryDy=0;" parent="1" source="PVKBwNUmlwo5uo1mzsMI-35" target="PVKBwNUmlwo5uo1mzsMI-6" edge="1">
          <mxGeometry width="50" height="50" relative="1" as="geometry">
            <mxPoint x="438" y="790" as="sourcePoint" />
            <mxPoint x="488" y="740" as="targetPoint" />
            <Array as="points">
              <mxPoint x="750" y="990" />
              <mxPoint x="20" y="990" />
              <mxPoint x="20" y="130" />
              <mxPoint x="164" y="130" />
            </Array>
          </mxGeometry>
        </mxCell>
      </root>
    </mxGraphModel>
  </diagram>
</mxfile>
